<svg width="99" height="94" viewBox="0 0 99 94" fill="none" xmlns="http://www.w3.org/2000/svg">
<g opacity="0.3">
<mask id="mask0_1_71" style="mask-type:alpha" maskUnits="userSpaceOnUse" x="0" y="0" width="10" height="11">
<path d="M4.59604 10.3619C7.07915 10.3619 9.09212 8.22881 9.09212 5.59759C9.09212 2.96638 7.07915 0.833374 4.59604 0.833374C2.11293 0.833374 0.0999756 2.96638 0.0999756 5.59759C0.0999756 8.22881 2.11293 10.3619 4.59604 10.3619Z" fill="url(#paint0_linear_1_71)"/>
</mask>
<g mask="url(#mask0_1_71)">
<path d="M4.59604 10.3619C7.07915 10.3619 9.09212 8.22881 9.09212 5.59759C9.09212 2.96638 7.07915 0.833374 4.59604 0.833374C2.11293 0.833374 0.0999756 2.96638 0.0999756 5.59759C0.0999756 8.22881 2.11293 10.3619 4.59604 10.3619Z" fill="url(#paint1_linear_1_71)"/>
</g>
<mask id="mask1_1_71" style="mask-type:alpha" maskUnits="userSpaceOnUse" x="26" y="0" width="10" height="11">
<path d="M30.6354 10.3618C33.1185 10.3618 35.1314 8.22874 35.1314 5.59753C35.1314 2.96632 33.1185 0.833313 30.6354 0.833313C28.1522 0.833313 26.1393 2.96632 26.1393 5.59753C26.1393 8.22874 28.1522 10.3618 30.6354 10.3618Z" fill="url(#paint2_linear_1_71)"/>
</mask>
<g mask="url(#mask1_1_71)">
<path d="M30.6357 10.3618C33.1188 10.3618 35.1318 8.22874 35.1318 5.59753C35.1318 2.96632 33.1188 0.833313 30.6357 0.833313C28.1526 0.833313 26.1396 2.96632 26.1396 5.59753C26.1396 8.22874 28.1526 10.3618 30.6357 10.3618Z" fill="url(#paint3_linear_1_71)"/>
</g>
<mask id="mask2_1_71" style="mask-type:alpha" maskUnits="userSpaceOnUse" x="52" y="0" width="10" height="11">
<path d="M56.6747 10.3618C59.1578 10.3618 61.1707 8.22874 61.1707 5.59753C61.1707 2.96632 59.1578 0.833313 56.6747 0.833313C54.1916 0.833313 52.1786 2.96632 52.1786 5.59753C52.1786 8.22874 54.1916 10.3618 56.6747 10.3618Z" fill="url(#paint4_linear_1_71)"/>
</mask>
<g mask="url(#mask2_1_71)">
<path d="M56.6753 10.3618C59.1584 10.3618 61.1714 8.22874 61.1714 5.59753C61.1714 2.96632 59.1584 0.833313 56.6753 0.833313C54.1922 0.833313 52.1793 2.96632 52.1793 5.59753C52.1793 8.22874 54.1922 10.3618 56.6753 10.3618Z" fill="url(#paint5_linear_1_71)"/>
</g>
<mask id="mask3_1_71" style="mask-type:alpha" maskUnits="userSpaceOnUse" x="78" y="0" width="10" height="11">
<path d="M82.7139 10.3618C85.197 10.3618 87.2099 8.22874 87.2099 5.59753C87.2099 2.96632 85.197 0.833313 82.7139 0.833313C80.2307 0.833313 78.2178 2.96632 78.2178 5.59753C78.2178 8.22874 80.2307 10.3618 82.7139 10.3618Z" fill="url(#paint6_linear_1_71)"/>
</mask>
<g mask="url(#mask3_1_71)">
<path d="M82.7145 10.3618C85.1976 10.3618 87.2105 8.22874 87.2105 5.59753C87.2105 2.96632 85.1976 0.833313 82.7145 0.833313C80.2314 0.833313 78.2184 2.96632 78.2184 5.59753C78.2184 8.22874 80.2314 10.3618 82.7145 10.3618Z" fill="url(#paint7_linear_1_71)"/>
</g>
<mask id="mask4_1_71" style="mask-type:alpha" maskUnits="userSpaceOnUse" x="0" y="24" width="10" height="11">
<path d="M4.59604 34.2822C7.07915 34.2822 9.09212 32.1492 9.09212 29.518C9.09212 26.8868 7.07915 24.7538 4.59604 24.7538C2.11293 24.7538 0.0999756 26.8868 0.0999756 29.518C0.0999756 32.1492 2.11293 34.2822 4.59604 34.2822Z" fill="url(#paint8_linear_1_71)"/>
</mask>
<g mask="url(#mask4_1_71)">
<path d="M4.59604 34.2823C7.07915 34.2823 9.09212 32.1493 9.09212 29.518C9.09212 26.8868 7.07915 24.7538 4.59604 24.7538C2.11293 24.7538 0.0999756 26.8868 0.0999756 29.518C0.0999756 32.1493 2.11293 34.2823 4.59604 34.2823Z" fill="url(#paint9_linear_1_71)"/>
</g>
<mask id="mask5_1_71" style="mask-type:alpha" maskUnits="userSpaceOnUse" x="26" y="24" width="10" height="11">
<path d="M30.6354 34.2823C33.1185 34.2823 35.1314 32.1493 35.1314 29.518C35.1314 26.8868 33.1185 24.7538 30.6354 24.7538C28.1522 24.7538 26.1393 26.8868 26.1393 29.518C26.1393 32.1493 28.1522 34.2823 30.6354 34.2823Z" fill="url(#paint10_linear_1_71)"/>
</mask>
<g mask="url(#mask5_1_71)">
<path d="M30.6357 34.2822C33.1188 34.2822 35.1318 32.1492 35.1318 29.518C35.1318 26.8868 33.1188 24.7538 30.6357 24.7538C28.1526 24.7538 26.1396 26.8868 26.1396 29.518C26.1396 32.1492 28.1526 34.2822 30.6357 34.2822Z" fill="url(#paint11_linear_1_71)"/>
</g>
<mask id="mask6_1_71" style="mask-type:alpha" maskUnits="userSpaceOnUse" x="52" y="24" width="10" height="11">
<path d="M56.6747 34.2823C59.1578 34.2823 61.1707 32.1493 61.1707 29.518C61.1707 26.8868 59.1578 24.7538 56.6747 24.7538C54.1916 24.7538 52.1786 26.8868 52.1786 29.518C52.1786 32.1493 54.1916 34.2823 56.6747 34.2823Z" fill="url(#paint12_linear_1_71)"/>
</mask>
<g mask="url(#mask6_1_71)">
<path d="M56.6753 34.2822C59.1584 34.2822 61.1714 32.1492 61.1714 29.518C61.1714 26.8868 59.1584 24.7538 56.6753 24.7538C54.1922 24.7538 52.1793 26.8868 52.1793 29.518C52.1793 32.1492 54.1922 34.2822 56.6753 34.2822Z" fill="url(#paint13_linear_1_71)"/>
</g>
<mask id="mask7_1_71" style="mask-type:alpha" maskUnits="userSpaceOnUse" x="78" y="24" width="10" height="11">
<path d="M82.7139 34.2823C85.197 34.2823 87.2099 32.1493 87.2099 29.518C87.2099 26.8868 85.197 24.7538 82.7139 24.7538C80.2307 24.7538 78.2178 26.8868 78.2178 29.518C78.2178 32.1493 80.2307 34.2823 82.7139 34.2823Z" fill="url(#paint14_linear_1_71)"/>
</mask>
<g mask="url(#mask7_1_71)">
<path d="M82.7145 34.2822C85.1976 34.2822 87.2105 32.1492 87.2105 29.518C87.2105 26.8868 85.1976 24.7538 82.7145 24.7538C80.2314 24.7538 78.2184 26.8868 78.2184 29.518C78.2184 32.1492 80.2314 34.2822 82.7145 34.2822Z" fill="url(#paint15_linear_1_71)"/>
</g>
<mask id="mask8_1_71" style="mask-type:alpha" maskUnits="userSpaceOnUse" x="0" y="48" width="10" height="11">
<path d="M4.59604 58.1531C7.07915 58.1531 9.09212 56.0201 9.09212 53.3889C9.09212 50.7577 7.07915 48.6246 4.59604 48.6246C2.11293 48.6246 0.0999756 50.7577 0.0999756 53.3889C0.0999756 56.0201 2.11293 58.1531 4.59604 58.1531Z" fill="url(#paint16_linear_1_71)"/>
</mask>
<g mask="url(#mask8_1_71)">
<path d="M4.59604 58.1533C7.07915 58.1533 9.09212 56.0202 9.09212 53.389C9.09212 50.7578 7.07915 48.6248 4.59604 48.6248C2.11293 48.6248 0.0999756 50.7578 0.0999756 53.389C0.0999756 56.0202 2.11293 58.1533 4.59604 58.1533Z" fill="url(#paint17_linear_1_71)"/>
</g>
<mask id="mask9_1_71" style="mask-type:alpha" maskUnits="userSpaceOnUse" x="26" y="48" width="10" height="11">
<path d="M30.6354 58.1535C33.1185 58.1535 35.1314 56.0205 35.1314 53.3892C35.1314 50.758 33.1185 48.625 30.6354 48.625C28.1522 48.625 26.1393 50.758 26.1393 53.3892C26.1393 56.0205 28.1522 58.1535 30.6354 58.1535Z" fill="url(#paint18_linear_1_71)"/>
</mask>
<g mask="url(#mask9_1_71)">
<path d="M30.6357 58.1533C33.1188 58.1533 35.1318 56.0203 35.1318 53.3891C35.1318 50.7578 33.1188 48.6248 30.6357 48.6248C28.1526 48.6248 26.1396 50.7578 26.1396 53.3891C26.1396 56.0203 28.1526 58.1533 30.6357 58.1533Z" fill="url(#paint19_linear_1_71)"/>
</g>
<mask id="mask10_1_71" style="mask-type:alpha" maskUnits="userSpaceOnUse" x="52" y="48" width="10" height="11">
<path d="M56.6747 58.1535C59.1578 58.1535 61.1707 56.0205 61.1707 53.3892C61.1707 50.758 59.1578 48.625 56.6747 48.625C54.1916 48.625 52.1786 50.758 52.1786 53.3892C52.1786 56.0205 54.1916 58.1535 56.6747 58.1535Z" fill="url(#paint20_linear_1_71)"/>
</mask>
<g mask="url(#mask10_1_71)">
<path d="M56.6753 58.1533C59.1584 58.1533 61.1714 56.0203 61.1714 53.3891C61.1714 50.7578 59.1584 48.6248 56.6753 48.6248C54.1922 48.6248 52.1793 50.7578 52.1793 53.3891C52.1793 56.0203 54.1922 58.1533 56.6753 58.1533Z" fill="url(#paint21_linear_1_71)"/>
</g>
<mask id="mask11_1_71" style="mask-type:alpha" maskUnits="userSpaceOnUse" x="78" y="48" width="10" height="11">
<path d="M82.7139 58.1535C85.197 58.1535 87.2099 56.0205 87.2099 53.3892C87.2099 50.758 85.197 48.625 82.7139 48.625C80.2307 48.625 78.2178 50.758 78.2178 53.3892C78.2178 56.0205 80.2307 58.1535 82.7139 58.1535Z" fill="url(#paint22_linear_1_71)"/>
</mask>
<g mask="url(#mask11_1_71)">
<path d="M82.7145 58.1533C85.1976 58.1533 87.2105 56.0203 87.2105 53.3891C87.2105 50.7578 85.1976 48.6248 82.7145 48.6248C80.2314 48.6248 78.2184 50.7578 78.2184 53.3891C78.2184 56.0203 80.2314 58.1533 82.7145 58.1533Z" fill="url(#paint23_linear_1_71)"/>
</g>
<mask id="mask12_1_71" style="mask-type:alpha" maskUnits="userSpaceOnUse" x="0" y="72" width="10" height="11">
<path d="M4.59604 82.074C7.07915 82.074 9.09212 79.941 9.09212 77.3098C9.09212 74.6785 7.07915 72.5455 4.59604 72.5455C2.11293 72.5455 0.0999756 74.6785 0.0999756 77.3098C0.0999756 79.941 2.11293 82.074 4.59604 82.074Z" fill="url(#paint24_linear_1_71)"/>
</mask>
<g mask="url(#mask12_1_71)">
<path d="M4.59604 82.0738C7.07915 82.0738 9.09212 79.9407 9.09212 77.3095C9.09212 74.6783 7.07915 72.5453 4.59604 72.5453C2.11293 72.5453 0.0999756 74.6783 0.0999756 77.3095C0.0999756 79.9407 2.11293 82.0738 4.59604 82.0738Z" fill="url(#paint25_linear_1_71)"/>
</g>
<mask id="mask13_1_71" style="mask-type:alpha" maskUnits="userSpaceOnUse" x="26" y="72" width="10" height="11">
<path d="M30.6354 82.074C33.1185 82.074 35.1314 79.941 35.1314 77.3098C35.1314 74.6785 33.1185 72.5455 30.6354 72.5455C28.1522 72.5455 26.1393 74.6785 26.1393 77.3098C26.1393 79.941 28.1522 82.074 30.6354 82.074Z" fill="url(#paint26_linear_1_71)"/>
</mask>
<g mask="url(#mask13_1_71)">
<path d="M30.6357 82.0738C33.1188 82.0738 35.1318 79.9407 35.1318 77.3095C35.1318 74.6783 33.1188 72.5453 30.6357 72.5453C28.1526 72.5453 26.1396 74.6783 26.1396 77.3095C26.1396 79.9407 28.1526 82.0738 30.6357 82.0738Z" fill="url(#paint27_linear_1_71)"/>
</g>
<mask id="mask14_1_71" style="mask-type:alpha" maskUnits="userSpaceOnUse" x="52" y="72" width="10" height="11">
<path d="M56.6747 82.074C59.1578 82.074 61.1707 79.941 61.1707 77.3098C61.1707 74.6785 59.1578 72.5455 56.6747 72.5455C54.1916 72.5455 52.1786 74.6785 52.1786 77.3098C52.1786 79.941 54.1916 82.074 56.6747 82.074Z" fill="url(#paint28_linear_1_71)"/>
</mask>
<g mask="url(#mask14_1_71)">
<path d="M56.6753 82.0738C59.1584 82.0738 61.1714 79.9407 61.1714 77.3095C61.1714 74.6783 59.1584 72.5453 56.6753 72.5453C54.1922 72.5453 52.1793 74.6783 52.1793 77.3095C52.1793 79.9407 54.1922 82.0738 56.6753 82.0738Z" fill="url(#paint29_linear_1_71)"/>
</g>
<mask id="mask15_1_71" style="mask-type:alpha" maskUnits="userSpaceOnUse" x="78" y="72" width="10" height="11">
<path d="M82.7139 82.074C85.197 82.074 87.2099 79.941 87.2099 77.3098C87.2099 74.6785 85.197 72.5455 82.7139 72.5455C80.2307 72.5455 78.2178 74.6785 78.2178 77.3098C78.2178 79.941 80.2307 82.074 82.7139 82.074Z" fill="url(#paint30_linear_1_71)"/>
</mask>
<g mask="url(#mask15_1_71)">
<path d="M82.7145 82.0738C85.1976 82.0738 87.2105 79.9407 87.2105 77.3095C87.2105 74.6783 85.1976 72.5453 82.7145 72.5453C80.2314 72.5453 78.2184 74.6783 78.2184 77.3095C78.2184 79.9407 80.2314 82.0738 82.7145 82.0738Z" fill="url(#paint31_linear_1_71)"/>
</g>
</g>
<defs>
<linearGradient id="paint0_linear_1_71" x1="43.8873" y1="111.285" x2="-24.2962" y2="-52.0543" gradientUnits="userSpaceOnUse">
<stop stop-color="#89C5CC"/>
<stop offset="1" stop-color="#89C5CC"/>
</linearGradient>
<linearGradient id="paint1_linear_1_71" x1="43.8873" y1="111.285" x2="-24.2962" y2="-52.0543" gradientUnits="userSpaceOnUse">
<stop stop-color="#89C5CC"/>
<stop offset="1" stop-color="#89C5CC"/>
</linearGradient>
<linearGradient id="paint2_linear_1_71" x1="69.9267" y1="111.284" x2="1.74322" y2="-52.0545" gradientUnits="userSpaceOnUse">
<stop stop-color="#89C5CC"/>
<stop offset="1" stop-color="#89C5CC"/>
</linearGradient>
<linearGradient id="paint3_linear_1_71" x1="69.9271" y1="111.284" x2="1.74359" y2="-52.0545" gradientUnits="userSpaceOnUse">
<stop stop-color="#89C5CC"/>
<stop offset="1" stop-color="#89C5CC"/>
</linearGradient>
<linearGradient id="paint4_linear_1_71" x1="95.966" y1="111.284" x2="27.7825" y2="-52.0545" gradientUnits="userSpaceOnUse">
<stop stop-color="#89C5CC"/>
<stop offset="1" stop-color="#89C5CC"/>
</linearGradient>
<linearGradient id="paint5_linear_1_71" x1="95.9667" y1="111.284" x2="27.7832" y2="-52.0545" gradientUnits="userSpaceOnUse">
<stop stop-color="#89C5CC"/>
<stop offset="1" stop-color="#89C5CC"/>
</linearGradient>
<linearGradient id="paint6_linear_1_71" x1="122.005" y1="111.284" x2="53.8217" y2="-52.0545" gradientUnits="userSpaceOnUse">
<stop stop-color="#89C5CC"/>
<stop offset="1" stop-color="#89C5CC"/>
</linearGradient>
<linearGradient id="paint7_linear_1_71" x1="122.006" y1="111.284" x2="53.8223" y2="-52.0545" gradientUnits="userSpaceOnUse">
<stop stop-color="#89C5CC"/>
<stop offset="1" stop-color="#89C5CC"/>
</linearGradient>
<linearGradient id="paint8_linear_1_71" x1="43.8873" y1="135.204" x2="-24.295" y2="-28.1339" gradientUnits="userSpaceOnUse">
<stop stop-color="#89C5CC"/>
<stop offset="1" stop-color="#89C5CC"/>
</linearGradient>
<linearGradient id="paint9_linear_1_71" x1="43.8873" y1="135.204" x2="-24.295" y2="-28.1338" gradientUnits="userSpaceOnUse">
<stop stop-color="#89C5CC"/>
<stop offset="1" stop-color="#89C5CC"/>
</linearGradient>
<linearGradient id="paint10_linear_1_71" x1="69.9267" y1="135.204" x2="1.74436" y2="-28.1339" gradientUnits="userSpaceOnUse">
<stop stop-color="#89C5CC"/>
<stop offset="1" stop-color="#89C5CC"/>
</linearGradient>
<linearGradient id="paint11_linear_1_71" x1="69.9271" y1="135.204" x2="1.74473" y2="-28.1339" gradientUnits="userSpaceOnUse">
<stop stop-color="#89C5CC"/>
<stop offset="1" stop-color="#89C5CC"/>
</linearGradient>
<linearGradient id="paint12_linear_1_71" x1="95.966" y1="135.204" x2="27.7837" y2="-28.1339" gradientUnits="userSpaceOnUse">
<stop stop-color="#89C5CC"/>
<stop offset="1" stop-color="#89C5CC"/>
</linearGradient>
<linearGradient id="paint13_linear_1_71" x1="95.9667" y1="135.204" x2="27.7843" y2="-28.1339" gradientUnits="userSpaceOnUse">
<stop stop-color="#89C5CC"/>
<stop offset="1" stop-color="#89C5CC"/>
</linearGradient>
<linearGradient id="paint14_linear_1_71" x1="122.005" y1="135.204" x2="53.8229" y2="-28.1339" gradientUnits="userSpaceOnUse">
<stop stop-color="#89C5CC"/>
<stop offset="1" stop-color="#89C5CC"/>
</linearGradient>
<linearGradient id="paint15_linear_1_71" x1="122.006" y1="135.204" x2="53.8235" y2="-28.1339" gradientUnits="userSpaceOnUse">
<stop stop-color="#89C5CC"/>
<stop offset="1" stop-color="#89C5CC"/>
</linearGradient>
<linearGradient id="paint16_linear_1_71" x1="43.8873" y1="159.076" x2="-24.2962" y2="-4.26308" gradientUnits="userSpaceOnUse">
<stop stop-color="#89C5CC"/>
<stop offset="1" stop-color="#89C5CC"/>
</linearGradient>
<linearGradient id="paint17_linear_1_71" x1="43.8873" y1="159.076" x2="-24.2962" y2="-4.26296" gradientUnits="userSpaceOnUse">
<stop stop-color="#89C5CC"/>
<stop offset="1" stop-color="#89C5CC"/>
</linearGradient>
<linearGradient id="paint18_linear_1_71" x1="69.9267" y1="159.076" x2="1.74322" y2="-4.26277" gradientUnits="userSpaceOnUse">
<stop stop-color="#89C5CC"/>
<stop offset="1" stop-color="#89C5CC"/>
</linearGradient>
<linearGradient id="paint19_linear_1_71" x1="69.9271" y1="159.076" x2="1.74359" y2="-4.26295" gradientUnits="userSpaceOnUse">
<stop stop-color="#89C5CC"/>
<stop offset="1" stop-color="#89C5CC"/>
</linearGradient>
<linearGradient id="paint20_linear_1_71" x1="95.966" y1="159.076" x2="27.7825" y2="-4.26277" gradientUnits="userSpaceOnUse">
<stop stop-color="#89C5CC"/>
<stop offset="1" stop-color="#89C5CC"/>
</linearGradient>
<linearGradient id="paint21_linear_1_71" x1="95.9667" y1="159.076" x2="27.7832" y2="-4.26295" gradientUnits="userSpaceOnUse">
<stop stop-color="#89C5CC"/>
<stop offset="1" stop-color="#89C5CC"/>
</linearGradient>
<linearGradient id="paint22_linear_1_71" x1="122.005" y1="159.076" x2="53.8217" y2="-4.26277" gradientUnits="userSpaceOnUse">
<stop stop-color="#89C5CC"/>
<stop offset="1" stop-color="#89C5CC"/>
</linearGradient>
<linearGradient id="paint23_linear_1_71" x1="122.006" y1="159.076" x2="53.8223" y2="-4.26295" gradientUnits="userSpaceOnUse">
<stop stop-color="#89C5CC"/>
<stop offset="1" stop-color="#89C5CC"/>
</linearGradient>
<linearGradient id="paint24_linear_1_71" x1="43.8873" y1="182.997" x2="-24.2962" y2="19.6578" gradientUnits="userSpaceOnUse">
<stop stop-color="#89C5CC"/>
<stop offset="1" stop-color="#89C5CC"/>
</linearGradient>
<linearGradient id="paint25_linear_1_71" x1="43.8873" y1="182.996" x2="-24.2962" y2="19.6576" gradientUnits="userSpaceOnUse">
<stop stop-color="#89C5CC"/>
<stop offset="1" stop-color="#89C5CC"/>
</linearGradient>
<linearGradient id="paint26_linear_1_71" x1="69.9267" y1="182.997" x2="1.74322" y2="19.6578" gradientUnits="userSpaceOnUse">
<stop stop-color="#89C5CC"/>
<stop offset="1" stop-color="#89C5CC"/>
</linearGradient>
<linearGradient id="paint27_linear_1_71" x1="69.9271" y1="182.996" x2="1.74359" y2="19.6575" gradientUnits="userSpaceOnUse">
<stop stop-color="#89C5CC"/>
<stop offset="1" stop-color="#89C5CC"/>
</linearGradient>
<linearGradient id="paint28_linear_1_71" x1="95.966" y1="182.997" x2="27.7825" y2="19.6578" gradientUnits="userSpaceOnUse">
<stop stop-color="#89C5CC"/>
<stop offset="1" stop-color="#89C5CC"/>
</linearGradient>
<linearGradient id="paint29_linear_1_71" x1="95.9667" y1="182.996" x2="27.7832" y2="19.6575" gradientUnits="userSpaceOnUse">
<stop stop-color="#89C5CC"/>
<stop offset="1" stop-color="#89C5CC"/>
</linearGradient>
<linearGradient id="paint30_linear_1_71" x1="122.005" y1="182.997" x2="53.8217" y2="19.6578" gradientUnits="userSpaceOnUse">
<stop stop-color="#89C5CC"/>
<stop offset="1" stop-color="#89C5CC"/>
</linearGradient>
<linearGradient id="paint31_linear_1_71" x1="122.006" y1="182.996" x2="53.8223" y2="19.6575" gradientUnits="userSpaceOnUse">
<stop stop-color="#89C5CC"/>
<stop offset="1" stop-color="#89C5CC"/>
</linearGradient>
</defs>
</svg>
